<svg width="28" height="28" viewBox="0 0 28 28" fill="none" xmlns="http://www.w3.org/2000/svg">
<path d="M14.0007 2.33398C7.56765 2.33398 2.33398 7.56765 2.33398 14.0007C2.33398 20.4337 7.56765 25.6673 14.0007 25.6673C20.4337 25.6673 25.6673 20.4337 25.6673 14.0007C25.6673 7.56765 20.4337 2.33398 14.0007 2.33398ZM14.0007 23.334C8.85449 23.334 4.66732 19.1468 4.66732 14.0007C4.66732 8.85449 8.85449 4.66732 14.0007 4.66732C19.1468 4.66732 23.334 8.85449 23.334 14.0007C23.334 19.1468 19.1468 23.334 14.0007 23.334Z" fill="white"/>
<path d="M10.5 19.8327L19.8333 13.9993L10.5 8.16602V19.8327Z" fill="white"/>
</svg>
