<svg width="24" height="24" viewBox="0 0 24 24" fill="none" xmlns="http://www.w3.org/2000/svg">
<g clip-path="url(#clip0_441_1891)">
<path d="M12 23.9994C12.7956 23.9994 13.5587 23.6833 14.1213 23.1207C14.6839 22.5581 15 21.795 15 20.9994H9C9 21.795 9.31607 22.5581 9.87868 23.1207C10.4413 23.6833 11.2044 23.9994 12 23.9994ZM13.4925 1.64786C13.5134 1.43929 13.4904 1.22865 13.4249 1.02952C13.3595 0.83039 13.253 0.647194 13.1124 0.491746C12.9717 0.336299 12.8001 0.212051 12.6085 0.127016C12.4169 0.0419811 12.2096 -0.00195313 12 -0.00195312C11.7904 -0.00195313 11.5831 0.0419811 11.3915 0.127016C11.1999 0.212051 11.0283 0.336299 10.8876 0.491746C10.747 0.647194 10.6405 0.83039 10.5751 1.02952C10.5096 1.22865 10.4866 1.43929 10.5075 1.64786C8.81208 1.99271 7.28793 2.9129 6.19315 4.25261C5.09836 5.59232 4.50022 7.26922 4.5 8.99936C4.5 10.6464 3.75 17.9994 1.5 19.4994H22.5C20.25 17.9994 19.5 10.6464 19.5 8.99936C19.5 5.36936 16.92 2.33936 13.4925 1.64786V1.64786Z" fill="white"/>
</g>
<defs>
<clipPath id="clip0_441_1891">
<rect width="24" height="24" fill="white"/>
</clipPath>
</defs>
</svg>
