<svg width="53" height="57" viewBox="0 0 53 57" fill="none" xmlns="http://www.w3.org/2000/svg">
<path d="M29.3315 9.18945L29.3177 17.7308L29.3036 26.2721L28.6502 24.2893L28.649 24.2855L27.8047 43.3008C28.6349 45.8222 29.0796 47.1682 29.0846 47.1735C29.091 47.1806 29.5642 47.2113 30.1359 47.2419C31.8679 47.3343 34.0144 47.5322 35.6427 47.75C36.0197 47.8003 36.3441 47.8261 36.3638 47.8072C36.3832 47.7885 36.3938 39.0917 36.3874 28.4813L36.3754 9.18945H29.3315V9.18945Z" fill="#B1060F" stroke="black" stroke-width="0.611984"/>
<path d="M16.5908 9.16406V28.4755C16.5908 39.0968 16.6006 47.7974 16.6124 47.8101C16.6242 47.8227 17.2357 47.7606 17.9715 47.672C18.7071 47.5834 19.724 47.4732 20.2311 47.4271C21.0087 47.3565 23.3303 47.196 23.599 47.1942C23.6773 47.1937 23.6823 46.76 23.6936 39.0149L23.7057 30.8359L24.2673 32.5452L24.4661 33.1493L25.3101 14.1386L25.0201 13.2569C24.5869 11.9391 24.1533 10.6214 23.7193 9.30389L23.6727 9.16406H16.5908V9.16406Z" fill="#B1060F" stroke="black" stroke-width="0.611984"/>
<path d="M16.5908 9.16406V20.0041L23.6912 40.2604C23.692 39.7962 23.6928 39.5455 23.6936 39.0149L23.7057 30.8359L24.2673 32.5452C27.3943 42.0611 29.0742 47.163 29.0841 47.1737C29.0905 47.1808 29.5638 47.2116 30.1354 47.2421C31.8675 47.3345 34.0139 47.5324 35.6423 47.7502C36.0193 47.8005 36.3437 47.8263 36.3633 47.8074C36.3766 47.7945 36.3855 43.5302 36.3878 37.5147L29.3206 15.6632L29.3172 17.731L29.3032 26.2723L28.6498 24.2895C28.0113 22.3522 27.585 21.0566 25.0201 13.2569C24.5869 11.9391 24.1533 10.6214 23.7193 9.30389L23.6727 9.16406H16.5908V9.16406Z" fill="url(#paint0_radial_441_1833)"/>
<path d="M16.5908 9.16406L23.7054 30.8457V30.8359L24.2671 32.5452C27.3941 42.0611 29.074 47.163 29.0839 47.1737C29.0903 47.1808 29.5636 47.2116 30.1352 47.2421C31.8672 47.3345 34.0137 47.5324 35.642 47.7502C36.0172 47.8003 36.3397 47.8259 36.3625 47.8076L29.3027 26.2685V26.2723L28.6494 24.2895C28.0109 22.3522 27.5846 21.0566 25.0197 13.2569C24.3299 11.1595 23.7446 9.38093 23.7189 9.30389L23.6723 9.16406H16.5908Z" fill="#E50914"/>
<path d="M29.3315 9.18945L29.3177 17.7308L29.3036 26.2721L28.6502 24.2893L28.649 24.2855L27.8047 43.3008C28.6349 45.8222 29.0796 47.1682 29.0846 47.1735C29.091 47.1806 29.5642 47.2113 30.1359 47.2419C31.8679 47.3343 34.0144 47.5322 35.6427 47.75C36.0197 47.8003 36.3441 47.8261 36.3638 47.8072C36.3832 47.7885 36.3938 39.0917 36.3874 28.4813L36.3754 9.18945H29.3315V9.18945Z" fill="#B1060F" stroke="black" stroke-width="0.611984"/>
<path d="M16.5908 9.16406V28.4755C16.5908 39.0968 16.6006 47.7974 16.6124 47.8101C16.6242 47.8227 17.2357 47.7606 17.9715 47.672C18.7071 47.5834 19.724 47.4732 20.2311 47.4271C21.0087 47.3565 23.3303 47.196 23.599 47.1942C23.6773 47.1937 23.6823 46.76 23.6936 39.0149L23.7057 30.8359L24.2673 32.5452L24.4661 33.1493L25.3101 14.1386L25.0201 13.2569C24.5869 11.9391 24.1533 10.6214 23.7193 9.30389L23.6727 9.16406H16.5908V9.16406Z" fill="#B1060F" stroke="black" stroke-width="0.611984"/>
<path d="M16.5908 9.16406V20.0041L23.6912 40.2604C23.692 39.7962 23.6928 39.5455 23.6936 39.0149L23.7057 30.8359L24.2673 32.5452C27.3943 42.0611 29.0742 47.163 29.0841 47.1737C29.0905 47.1808 29.5638 47.2116 30.1354 47.2421C31.8675 47.3345 34.0139 47.5324 35.6423 47.7502C36.0193 47.8005 36.3437 47.8263 36.3633 47.8074C36.3766 47.7945 36.3855 43.5302 36.3878 37.5147L29.3206 15.6632L29.3172 17.731L29.3032 26.2723L28.6498 24.2895C28.0113 22.3522 27.585 21.0566 25.0201 13.2569C24.5869 11.9391 24.1533 10.6214 23.7193 9.30389L23.6727 9.16406H16.5908V9.16406Z" fill="url(#paint1_radial_441_1833)"/>
<path d="M16.5908 9.16406L23.7054 30.8457V30.8359L24.2671 32.5452C27.3941 42.0611 29.074 47.163 29.0839 47.1737C29.0903 47.1808 29.5636 47.2116 30.1352 47.2421C31.8672 47.3345 34.0137 47.5324 35.642 47.7502C36.0172 47.8003 36.3397 47.8259 36.3625 47.8076L29.3027 26.2685V26.2723L28.6494 24.2895C28.0109 22.3522 27.5846 21.0566 25.0197 13.2569C24.3299 11.1595 23.7446 9.38093 23.7189 9.30389L23.6723 9.16406H16.5908Z" fill="#E50914"/>
<defs>
<radialGradient id="paint0_radial_441_1833" cx="0" cy="0" r="1" gradientUnits="userSpaceOnUse" gradientTransform="translate(26.1607 15.6194) scale(13.9446 14.9971)">
<stop/>
<stop offset="1" stop-opacity="0"/>
</radialGradient>
<radialGradient id="paint1_radial_441_1833" cx="0" cy="0" r="1" gradientUnits="userSpaceOnUse" gradientTransform="translate(26.1607 15.6194) scale(13.9446 14.9971)">
<stop/>
<stop offset="1" stop-opacity="0"/>
</radialGradient>
</defs>
</svg>
